# xmcd
#
# Track frame offsets:
#	150
#	25396
#	48427
#	69195
#	95777
#	123461
#
# Disc length: 1888 seconds
#
# Revision: 0
# Processed by: cddbd v1.5.1PL0 Copyright (c) Steve Scherf et al.
# Submitted via: dBpowerAMP V4.0
#
DISCID=4e075e06
DTITLE=Julie Parsons - Timglaset - CD-BOK 10/10
DYEAR=2005
DGENRE=CD-BOK
TTITLE0=10.01
TTITLE1=10.02
TTITLE2=10.03
TTITLE3=10.04
TTITLE4=10.05
TTITLE5=10.06
EXTD=
EXTT0=
EXTT1=
EXTT2=
EXTT3=
EXTT4=
EXTT5=
PLAYORDER=
